<svg xmlns="http://www.w3.org/2000/svg" xmlns:xlink="http://www.w3.org/1999/xlink" viewBox="0 0 1357.7 433.35"><defs><style>.cls-1{fill:url(#Безымянный_градиент_15);}.cls-2{fill:url(#Безымянный_градиент_15-2);}.cls-3{fill:url(#Безымянный_градиент_15-3);}.cls-4{fill:url(#Безымянный_градиент_15-4);}.cls-5{fill:url(#Безымянный_градиент_15-5);}.cls-6{fill:url(#Безымянный_градиент_15-6);}.cls-7{fill:url(#Безымянный_градиент_15-7);}.cls-8{fill:url(#Безымянный_градиент_15-8);}.cls-9{fill:url(#Безымянный_градиент_15-9);}.cls-10{fill:url(#Безымянный_градиент_15-10);}.cls-11{fill:url(#Безымянный_градиент_15-11);}.cls-12{fill:#e7003a;}.cls-13{fill:#800;}.cls-14{fill:#fefefe;}</style><linearGradient id="Безымянный_градиент_15" x1="678.1" y1="128" x2="807.3" y2="128" gradientUnits="userSpaceOnUse"><stop offset="0"/><stop offset="1" stop-color="#800"/></linearGradient><linearGradient id="Безымянный_градиент_15-2" x1="828.7" y1="144.4" x2="929.3" y2="144.4" xlink:href="#Безымянный_градиент_15"/><linearGradient id="Безымянный_градиент_15-3" x1="952.3" y1="125.2" x2="1065.7" y2="125.2" xlink:href="#Безымянный_градиент_15"/><linearGradient id="Безымянный_градиент_15-4" x1="1087.9" y1="144.4" x2="1188.5" y2="144.4" xlink:href="#Безымянный_градиент_15"/><linearGradient id="Безымянный_градиент_15-5" x1="1215.7" y1="159.4" x2="1328.3" y2="159.4" xlink:href="#Безымянный_градиент_15"/><linearGradient id="Безымянный_градиент_15-6" x1="1350.7" y1="144.4" x2="1443.7" y2="144.4" xlink:href="#Безымянный_градиент_15"/><linearGradient id="Безымянный_градиент_15-7" x1="672.3" y1="367.5" x2="820.7" y2="367.5" xlink:href="#Безымянный_градиент_15"/><linearGradient id="Безымянный_градиент_15-8" x1="829.1" y1="384" x2="947.9" y2="384" xlink:href="#Безымянный_градиент_15"/><linearGradient id="Безымянный_градиент_15-9" x1="965.1" y1="384.4" x2="1058.1" y2="384.4" xlink:href="#Безымянный_градиент_15"/><linearGradient id="Безымянный_градиент_15-10" x1="1072.5" y1="381" x2="1226.1" y2="381" xlink:href="#Безымянный_градиент_15"/><linearGradient id="Безымянный_градиент_15-11" x1="1241.7" y1="384.8" x2="1340.3" y2="384.8" xlink:href="#Безымянный_градиент_15"/></defs><g id="Слой_1" data-name="Слой 1"><path class="cls-1" d="M678.1,128.4V128c0-39.8,30-72.4,73-72.4,26.2,0,42.4,8.8,55.2,21.6L786.7,99.8C775.7,90,765.1,84,750.9,84c-23.6,0-40.6,19.6-40.6,43.6v.4c0,24,16.6,44,40.6,44,16,0,25.8-6.2,36.8-16.4l19.6,19.8c-14.4,15.4-30.2,25-57.4,25C708.7,200.4,678.1,168.6,678.1,128.4Z" transform="translate(-86 -36.65)"/><path class="cls-2" d="M828.7,90.8h30.2v59l41.8-59h28.6V198H899.1V136.8L855.7,198h-27Z" transform="translate(-86 -36.65)"/><path class="cls-3" d="M969.7,185.6c-11.2-11.2-17.4-26.6-17.4-50.8v-.2c0-45.4,18.2-71.4,57.2-77.8l40.4-6.8,4.8,27.8L1014.9,84c-20.8,3.4-31.2,12.6-34.2,27,8.6-7,21.4-11.8,36-11.8,31.6,0,49,19.2,49,47.4v.2c0,30.4-23,53.6-57.4,53.6C991.3,200.4,977.9,193.8,969.7,185.6Zm66.2-38.4V147c0-14.6-9.2-25.6-25.8-25.6-18.2,0-27.8,12.4-27.8,27.2v.2c0,14.6,10.4,26.2,26.4,26.2S1035.9,163.2,1035.9,147.2Z" transform="translate(-86 -36.65)"/><path class="cls-4" d="M1087.9,90.8h30.2v59l41.8-59h28.6V198h-30.2V136.8L1114.9,198h-27Z" transform="translate(-86 -36.65)"/><path class="cls-5" d="M1215.7,90.8h30.4v15.4c7.4-10.2,17.4-17.4,33.4-17.4,25,0,48.8,19.6,48.8,55.4v.4c0,35.8-23.4,55.4-48.8,55.4-16.2,0-26.2-7.4-33.4-16v46h-30.4Zm82.2,53.8v-.4c0-17.8-12-29.6-26.2-29.6s-26,11.8-26,29.6v.4c0,17.8,11.8,29.6,26,29.6S1297.9,162.6,1297.9,144.6Z" transform="translate(-86 -36.65)"/><path class="cls-6" d="M1350.7,90.8h30.2v30.6h19.6c25.79,0,43.2,13,43.2,37.8v.2c0,23.4-16.2,38.6-45.6,38.6h-47.4Zm46.6,82.6c10.4,0,16.6-4.6,16.6-14v-.2c0-7.8-5.8-13.8-16.2-13.6h-17v27.8Z" transform="translate(-86 -36.65)"/><path class="cls-7" d="M732.3,297h28.4l60,141H788.5l-12.8-31.4H716.5L703.7,438H672.3Zm32.4,82.4L746.1,334l-18.6,45.4Z" transform="translate(-86 -36.65)"/><path class="cls-8" d="M947.9,438H915.3l-27-70.8L861.1,438h-32l45-108h28.8Z" transform="translate(-86 -36.65)"/><path class="cls-9" d="M965.1,330.8h30.2v30.6h19.6c25.8,0,43.2,13,43.2,37.8v.2c0,23.4-16.2,38.6-45.6,38.6H965.1Zm46.6,82.6c10.4,0,16.6-4.6,16.6-14v-.2c0-7.8-5.8-13.8-16.2-13.6h-17v27.8Z" transform="translate(-86 -36.65)"/><path class="cls-10" d="M1134.3,470V438.2c-39.4-1.6-61.8-23.6-61.8-53.6v-.2c0-29.2,22.4-52.2,61.8-53.8V292h30v38.6c39.2,1.6,61.8,24,61.8,53.6v.2c0,29.6-22.8,52.2-61.8,53.8V470Zm-32.2-85.6c0,16.6,12,27.6,32.8,28.4V356c-21.8.8-32.8,12.2-32.8,28.2Zm94.6,0c0-16.6-12.2-27.8-33-28.4v56.8c21.8-.6,33-12,33-28.2Z" transform="translate(-86 -36.65)"/><path class="cls-11" d="M1241.7,407.2v-.4c0-23.2,17.8-34.2,43.2-34.2a76.17,76.17,0,0,1,26.2,4.4v-1.8c0-12.8-7.8-19.6-23-19.6-11.8,0-19.8,2-29.6,5.8l-7.6-23.2c11.8-5,23.4-8.6,41.6-8.6,16.8,0,28.4,4.2,36.2,12,8,8,11.6,19.8,11.6,34.2V438h-29.4V426.4c-7.4,8.2-17.4,13.6-32.4,13.6C1258.3,440,1241.7,428.6,1241.7,407.2Zm69.8-7v-5.4a47.85,47.85,0,0,0-19.4-4c-13,0-21,5.2-21,14.8v.4c0,8.2,6.8,13,16.6,13C1302.1,419,1311.5,411.4,1311.5,400.2Z" transform="translate(-86 -36.65)"/></g><g id="Слой_2" data-name="Слой 2"><path class="cls-12" d="M454,317.91a3.65,3.65,0,0,1-.41,0s0-.49,0-1.36A12.83,12.83,0,0,1,454,317.91Z" transform="translate(-86 -36.65)"/><path class="cls-13" d="M426.45,203.85q0,9.93,0,19.88c-.11-.13-.23-.27-.35-.39-3.12-3.06-5-7.07-10.53-7-4.52,0-5.13-4-5.43-7.85-.91-11.5-5.15-20.65-17.08-24.81-3.88-1.34-7.77-3.62-5.5-9.31,1.77-4.47-1.93-7.36-4-10.37C366,138.84,348,114,330.6,88.68c-4.46-6.49-11.3-11.25-13.56-19.36-1.19-4.23-5-3.76-8.38-3.53C301.83,74.4,295,83,288.15,91.6c-1.17,1.46-2.14,3.35-4.54,3h0l-7.22,9.18c-6.85,11.71-12.75,23.74-23.66,33-8.79,7.42-15.21,17.61-22.69,26.56-1.24,1.49-2.53,3-3.8,4.41-5.3,14.67-18.86,22.87-27.51,35-9.91,13.9-22.61,26-27.4,43.14-.72,2.6-.37,4.93-.12,7.41l-.07-.05v.05h0l.6.79c.44.61.87,1.21,1.28,1.81l-10.41.07-3.49,0a6.92,6.92,0,0,0-1.31-4.46c-1.11-6.73,5.06-12.81,1.73-19.72q17.55-22.12,35.1-44.26c2.91-3.67,7.45-6.78,3.29-12.66-1.26-1.78,1-4.06,3-5.31-.55-3.59,1.76-6,3.65-8.52,11-9.89,18.3-22.89,28.54-33.4,2.26-2.18,3.23-5.65,6.69-6.64,15.27-20.91,32.64-40.12,48.8-60.32,2-2.53,2.55-5.4,3.32-8.39,3.46-13.14,18.25-19.8,28.07-12.77h0c6.74-1.71,12.57.42,18,4.27h0a18,18,0,0,0,3.95-1c2.17-1.07,4.25-3.38,6.69-1.25,2.2,1.93,1.44,4.62.42,7-1.42,3.25.82,5.85,1.34,8.75Q360.47,74,370.52,90.74c3.29,3.42,9.69,4.28,9,11,7.58,10,13,21.31,19.38,32,3.09,5.17,4.88,11.3,11.15,14a4.49,4.49,0,0,1,2.08,3.35c.22,12.88,6.5,22.82,13.68,32.34h-.13c-2.69-.12-4.61.82-5.54,3.44v12.3c.93,2.15,2.43,3.49,4.9,3.24C426.29,202.29,426.45,202.77,426.45,203.85Z" transform="translate(-86 -36.65)"/><path class="cls-12" d="M497.54,436.16a.43.43,0,0,0,0,0s0,0,0,0Z" transform="translate(-86 -36.65)"/><path d="M218.3,273.81l-.3.52c-.18.28-4.31,7.12-9.18,15.19l-7.16,11.8-1.73,2.87-2.31-.05c-1.26,0-7.53-.12-13.92-.15l-9.24-.07-5.68-.08-3.27-.07,4.68-3c.18-.1.33-.22.52-.32,2.33-1.51,4.17-2.73,4.2-2.76,0-.22-13-24.25-14.25-26.26a49.91,49.91,0,0,0-4.54-6.44c.74-3,2.83-5.91,3-9l3.49,0,10.41-.07c11.08,0,14,0,14.78.22a19.07,19.07,0,0,1,9.33,5.47,18.78,18.78,0,0,1,2.56,3.62c.17.33,2,3.69,4,7.48l3.72,6.85,1.3-.67c.73-.38,2.57-1.36,4.08-2.14s3.39-1.76,4.12-2.17Z" transform="translate(-86 -36.65)"/><path d="M145.46,256.09l-2.2.08,1,.32a25.51,25.51,0,0,1,8.72,5.18,30.75,30.75,0,0,1,3.18,3.31c.74-3,2.83-5.92,3-9Z" transform="translate(-86 -36.65)"/><path d="M155.6,268.87c-4.88-6.39-10.41-10.52-15.57-11.37a14.76,14.76,0,0,0-3.49-.09,13.51,13.51,0,0,0-7,3.31c-.59.53-17.66,26.81-17.66,27.17,0,0,3.41,2.05,8.34,5l7.93,4.71,7.93,4.68,3.35,2c3,1.76,4.89,2.83,5,2.83s4-6.42,8.72-14.15l8.6-14-.89-1.67A59.08,59.08,0,0,0,155.6,268.87Z" transform="translate(-86 -36.65)"/><path d="M230,320.4c-3.63-7.12-6.9-13.54-7.26-14.23l-.68-1.27-16,9.74c-.22.15-.45.28-.67.42-8.48,5.18-15.37,9.4-15.48,9.5s.71,1.69,4.78,9.27c.84,1.55,1.8,3.34,2.92,5.44l7.86,14.55h3.76a43.8,43.8,0,0,0,5.46-.24A37.81,37.81,0,0,0,227.66,350a19.68,19.68,0,0,0,5.17-3.47A13,13,0,0,0,237,336.28C236.85,333.77,237.23,334.64,230,320.4Z" transform="translate(-86 -36.65)"/><path d="M108.47,354c2,.13,7.87.18,8,.06s3.1-4.94,6.74-10.91l1.41-2.28,1.83-3,3.4-5.58.9.49c.51.27,2.74,1.47,5,2.7s4,2.16,4.1,2.16-3.88-7.34-8.66-16.2l-6.61-12.22-2.11-3.92h-2.11c-.91,0-5,0-9.93.05l-4.54,0c-6.78.05-13.83.14-15.68.2l-3.32.07,5,3.87c2.72,2.15,4.95,3.94,4.95,4s-2.25,4.45-5,9.73-5.13,10-5.3,10.46c-1.51,4.54.37,9.76,5.13,14.2C95.85,351.81,100.29,353.42,108.47,354Z" transform="translate(-86 -36.65)"/><path d="M216,356.3c-1.34.18-3.42.22-17.25.25L183,356.6v-.51c0-.9-.48-9.57-.57-10.27l-.08-.67-8.48,15.3-8.47,15.28,2.81,5.15c1.55,2.84,5.37,9.82,8.47,15.51l5.67,10.35.07-.85c0-.46.14-2.95.21-5.52s.16-5,.2-5.34l.07-.69,9.11,0c8.05,0,9.22,0,10.08-.18a19.92,19.92,0,0,0,6.81-2.87,19,19,0,0,0,4.62-4.64c.46-.74,19.09-35.55,20.27-37.86.18-.34,0-.24-1,.65C228.19,353.42,223.48,355.35,216,356.3Z" transform="translate(-86 -36.65)"/><path d="M127,356.4c-22.18-.13-21.23-.12-22.72-.33A25.59,25.59,0,0,1,89.46,349a8.18,8.18,0,0,0-1-.95s4.16,7.73,9.22,17.1,9.93,18.33,10.78,19.91c1.51,2.82,1.57,2.91,2.67,4,2.39,2.42,5.8,4,10.16,4.83,3.49.64,3.4.64,18.54.69l14.14,0v-38l-7.34-.08C142.56,356.5,133.73,356.43,127,356.4Z" transform="translate(-86 -36.65)"/><path d="M453.55,316.53c-.17-.38-.34-.77-.54-1.16a6.77,6.77,0,0,0,.52-.9C453.53,315.31,453.53,316,453.55,316.53Z" transform="translate(-86 -36.65)"/><path d="M586,406V399.7l-10.25,0-10.22-.05-.12-13.16c-.08-7.24-.19-17.07-.25-21.86l-.12-8.7h-1.71l-.12-2.12c-.08-1.15-.27-2.68-.38-3.33-.49-2.35-.74-2.65-6.41-7.51-7.12-6.09-34.84-30-58.31-50.32-8.78-7.58-16.61-14.32-19.58-16.83-.69-.59-1.12-.94-1.24-1a24.71,24.71,0,0,0-5.62-3.06,10.31,10.31,0,0,0-3.27-.36c-4.11,0-5.51.39-6.82,1.77s-1.24-.58-1.24,23.28v21.46l-2.7,0H457c-1.29,0-2.43,0-3,0h-.42s0-.49,0-1.36c-.17-.39-.34-.77-.54-1.16a6.77,6.77,0,0,0,.52-.9c0-4.85,0-14.37,0-25.25V270h59.35a1.86,1.86,0,0,0,2-1.5c0-.06,0-.15,0-.21l.07,0a3.54,3.54,0,0,1,3.77,0,.13.13,0,0,1,.07.05l.2.15a2.39,2.39,0,0,0,2.05,1.19c4.34,0,8.7.37,13-.19a6.17,6.17,0,0,0,5.54-5.43,17.56,17.56,0,0,0,.23-3.07q0-27.81,0-55.63v-1.12c0-2,.15-2.13,2.18-2.21a3.94,3.94,0,0,0,4-3.89q.12-5.12,0-10.21a4,4,0,0,0-4.19-4.11c-.91,0-1.81,0-2.7,0a1.29,1.29,0,0,1-1.44-1.46c0-.77,0-1.55,0-2.33a3.78,3.78,0,0,0-1.76-3.57,2.58,2.58,0,0,1-1.21-2.5,10.13,10.13,0,0,0-.29-3.05,3.65,3.65,0,0,0-3-3,29.43,29.43,0,0,0-9.55,0,3.75,3.75,0,0,0-3.09,3,11.18,11.18,0,0,0-.27,3.31v.11a2.37,2.37,0,0,1-1.15,2.17,3.64,3.64,0,0,0-1.81,3.53c0,.86,0,1.71,0,2.59a1.14,1.14,0,0,1-1.22,1.24H514c-2.77.26-3.07,0-3.07-2.77,0-2.08,0-4.17,0-6.27a11.37,11.37,0,0,0-.13-1.31c-.34-1.73-1.41-2.43-3.59-2.43-2.89,0-5.75,0-8.62,0a2.2,2.2,0,0,0-2.1,1l0,0a1,1,0,0,1-.17.13s0,0,0,0a4,4,0,0,1-3.4.37c-.15,0-.31-.05-.46-.09h-.05v0c0-.05,0-.1,0-.15-.1-1.36-1-1.8-2.18-1.8q-15.69,0-31.37,0a3.41,3.41,0,0,0-3.67,3.71c0,2.21,0,4.42,0,6.64,0,2.68,0,2.64-2.72,2.61-.75,0-.87-.3-.85-.94,0-1.1,0-2.21-.07-3.32a3.05,3.05,0,0,0-1.52-2.8c-1.83-.77-1.63-2.14-1.58-3.6,0-.29,0-.57,0-.86a4.49,4.49,0,0,0-4.66-4.67q-3.75-.08-7.5,0a4.48,4.48,0,0,0-4.62,4.71c0,.94,0,1.87,0,2.81,0,.41-.05.69-.49.88-2.18,1-2.77,2.8-2.7,5,.05,2.69,0,2.82-2.58,2.72h-.13c-2.69-.12-4.61.82-5.54,3.44v12.3c.93,2.15,2.43,3.49,4.9,3.24,1.21-.13,1.37.35,1.37,1.43q0,9.93,0,19.88,0,10.16,0,20.35v18.7a6.87,6.87,0,0,0,3.06,6.08,7.93,7.93,0,0,0,4.65,1.14h9.14l0,19,0,29H439.6v10.09H429.34l0,6.81.05,6.8,1.58.07,1.57.05v36.62l-2.6,7.41c-6.79,19.41-14.26,40.76-16.63,47.45-3.94,11.08-4.14,11.73-4.56,13.78-1,4.88-.52,8.62,1.41,11.13a9,9,0,0,0,3.76,2.4c1.15.35,1.62.35,41,.35s39.84,0,41-.35a7.36,7.36,0,0,0,4.51-3.61c.89-1.67,1.11-2.8,1.09-5.5,0-3.05-.15-4.24-1.84-9.22-.5-1.49-1.16-3.32-2-5.65-.05-.13-.1-.3-.17-.47a.43.43,0,0,1,0-.05l-.66-1.84c-1.76-5-5.71-16.25-10.61-30.23-.52-1.51-1.07-3-1.61-4.61-1.47-4.17-3-8.53-4.58-13l-2.76-7.93V341.85h3.42V328.13H470.25l0-5.1,0-5.08h-1.07l-1.09,0,.05-8.63c0-4.75.1-13.2.17-18.8l.1-10.14.55-.29c.81-.42,2.62-.23,4.21.41a6.92,6.92,0,0,1,1.47.83c.89.62,2.22,1.75,4.93,4.11S499.64,302.9,518,318.88s33.88,29.34,34.44,29.76a9.94,9.94,0,0,1,3.89,5.68c.33,1.27.31,1.58-.07,1.58s-.35.43-.45,8.78c-.09,4.85-.14,16.21-.14,25.27,0,15.89,0,16.46-.33,17.13a7.09,7.09,0,0,1-5.12,3.15c-1.34,0-2.53-.87-6.52-4.76-3.44-3.37-4.61-4.34-5.75-4.83-.37-.15-3.37-.21-11.75-.21H515V406h2.87l0,13.14,0,11.33c.06,23.19.08,24.52.4,25.45a10.72,10.72,0,0,0,5.08,6.17c2.1,1.09,1.38,1.21,17.44,1.23h9.42c22.62,0,23.32,0,24.66-.37a11.75,11.75,0,0,0,2.33-.84,12.69,12.69,0,0,0,4.24-4.38c1.18-2.43,1.11-.88,1.11-27.52V406Zm-43.48-209.8v.14a.47.47,0,0,1-.15.06Zm-20.65-24.64c.13-.61.64-.56,1.07-.56h7c.44,0,.92,0,1.08.56a12.33,12.33,0,0,1,.13,3.15c0,.52-.3.59-.72.59h-8c-.42,0-.76-.09-.72-.59C521.8,173.68,521.5,172.63,521.87,171.59ZM518.57,182c0-.24,0-.49.08-.74,0-.4-.07-.8-.07-1.21,0-.65.27-1,1-1h4.88c3,0,5.93,0,8.9.05,1.59,0,.8,1.36.9,2.16.21,2.25.21,2.25-2,2.25l-6.12,0c-2,0-4,0-6.05.07C518.73,183.52,518.36,183.12,518.57,182ZM478.09,233.1c1.91-3,3.84-6.08,5.8-9.12a1.85,1.85,0,1,1,3.11,2c-1.11,1.81-2.27,3.59-3.41,5.4a2.16,2.16,0,0,0-.53,1.17c1.19,0,2.38,0,3.55,0,2,.06,2.82,1.45,1.78,3.14-1.86,3-3.76,5.95-5.67,8.92-.79,1.22-1.84,1.56-2.77.94s-1.1-1.71-.3-3c1.29-2,2.57-4,4-6.29-1.44,0-2.65,0-3.85,0C477.89,236.15,477.09,234.71,478.09,233.1Zm43.36,187V406.91h9l9.07,0,1.86,1.79a28.53,28.53,0,0,0,6.32,4.82c2.37,1.15,4,.87,6.85-1.24a4.72,4.72,0,0,1,1-.66s.1,1.95.15,4.24l.1,4.19ZM451.5,270v48l-3,0-3-.05-.05-29.37,0-18.58Zm-16.08-98.4c.15-.6.64-.57,1.08-.57h7c.46,0,.94,0,1.08.56.37,1,.06,2.11.13,3.15,0,.52-.3.59-.72.59h-8c-.42,0-.77-.07-.74-.57A12.37,12.37,0,0,1,435.42,171.6Zm-1.81,11.91c-1.31,0-1.66-.39-1.46-1.56,0-.24.05-.49.07-.74,0-.4-.05-.8-.07-1.22a.85.85,0,0,1,1-1c4.59,0,9.2,0,13.8,0,1.56,0,.8,1.36.89,2.16.2,2.25.2,2.25-2,2.25C441.73,183.46,437.67,183.39,433.61,183.51Zm3.62,253.67a2.34,2.34,0,0,1-3.22-2.1,2.43,2.43,0,0,1,1.36-2.31,2.19,2.19,0,0,1,2.05.06A2.42,2.42,0,0,1,437.23,437.18Zm10.83,9.35a4.13,4.13,0,0,1-3.6,0,3.83,3.83,0,0,1,.29-6.82,4.61,4.61,0,0,1,1.52-.34,3.89,3.89,0,0,1,2.83,1.31A3.79,3.79,0,0,1,448.06,446.53Zm29.61-53.13,4.48,13.25c3.37,10,6.61,19.59,6.74,20.05l.13.42H459.13l-.13,1.09a5.27,5.27,0,0,1-10.52,0l-.1-1.12h5.27c6,0,5.63.1,4.78-1.6a5.21,5.21,0,0,0-8.15-1.54,6.34,6.34,0,0,0-1.73,2.8c-.1.32-.92.34-14.08.34-7.68,0-14-.07-14-.15s.52-1.6,1.16-3.37c1-2.94,3-8.45,12.46-35l2.95-8.3.11-19.24,0-1.06.08-12.19,0-6h5.18v50.46l5.31,0,5.33,0v-8.47c0-4.68-.05-12.88-.14-18.27l-.1-9.76h4.56V392.5h9.74V355.36h3.06V341.85h3.6v2.28c0,1.29-.08,5.36-.17,9.07-.05,1.59-.1,3.89-.15,6.4-.06,3.4-.15,7.21-.22,10.36l-.21,10,1.2,3.52C475,385.42,476.48,389.88,477.67,393.4ZM445.92,390V355.73h4.14V390Zm14.42,0V355.73h4.14V390Zm12.1-58.76,6.83,0v5.23H430.76l.05-2.58.05-2.55,6.52,0,14.66,0,3,0h17.38Zm59.71-3.39c-13.67-11.77-32.53-28-41.92-36.15-8.7-7.49-13.06-11.32-15.56-13.24-3.1-2.38-3.37-1.88-5.5-1.83l-2.06.07-.35,1.34c-.35,1.31-.37,2.18-.45,20.64l-.1,19.29-2,.05-1.49.05h-.43v-8.21l0-12.93.07-21.12.75-.57a7.88,7.88,0,0,1,1.79-1,11.82,11.82,0,0,1,6.83,0,9.71,9.71,0,0,1,4.22,2.23c.64.5,1.38,1.14,2.35,2,4.34,3.74,79.52,68.3,81.08,69.63a4,4,0,0,1,1.48,1.94,10.63,10.63,0,0,1,.48,4.48l-.13.82H558.5v-1.49a6.88,6.88,0,0,0-1.09-4C557.16,349.56,545.79,339.62,532.15,327.83Zm30.41,92.24h-4.33V409.66l1.56-1.14c.89-.6,1.86-1.32,2.17-1.56l.6-.43Zm0-18.27-1.85,1.51c-1,.85-2,1.64-2.16,1.78s-.32-.59-.32-22.94V359h4.33Zm16.23,18.27H565.63V406.19h13.16Z" transform="translate(-86 -36.65)"/><path d="M458.32,399a4,4,0,0,0-4.4,1.46,3.1,3.1,0,0,0-.58,1.93,3.57,3.57,0,0,0,1.55,3.35,4,4,0,0,0,3.75.31,3.71,3.71,0,0,0,1.05-6.11A4.36,4.36,0,0,0,458.32,399Z" transform="translate(-86 -36.65)"/><path d="M442.83,399.66a2.42,2.42,0,0,0-1.29-.26,2.32,2.32,0,0,0-2.16,2.39,2.38,2.38,0,1,0,3.45-2.13Z" transform="translate(-86 -36.65)"/><path d="M446.12,409.4a2.87,2.87,0,0,0-1.34-.32,1.79,1.79,0,0,0-1.53.62,1.58,1.58,0,0,0-.67,1.36v.37c0,1.05,0,1.14.67,1.72a1.81,1.81,0,0,0,1.6.62,1.71,1.71,0,0,0,1-.2,3.12,3.12,0,0,0,.6-.5,1.65,1.65,0,0,0,.71-1.54A2.32,2.32,0,0,0,446.12,409.4Z" transform="translate(-86 -36.65)"/><path class="cls-14" d="M264.2,282.19q-4.68-1.45-9.31-3a2.46,2.46,0,1,1,1.5-4.66c2.17.67,4.33,1.4,6.85,2.22a68.84,68.84,0,0,1-6.61-20.41c-3.58-24.33,3.37-45.22,20.69-62.67,1.46-1.47,3.07-2.79,4.65-4.13s3-1.33,4-.1.69,2.6-.92,3.92a66.15,66.15,0,0,0-18.2,79.52c.19.42.24,1,.86,1.22.53-2.18,1-4.32,1.58-6.46.48-1.87,1.67-2.74,3.11-2.34s2.11,1.66,1.66,3.53c-.72,3.08-1.46,6.15-2.27,9.2A5.74,5.74,0,0,1,264.2,282.19Z" transform="translate(-86 -36.65)"/><path class="cls-14" d="M271.24,331.37c-.16,1.56-.5,3.1-.78,4.79-.4-.46-.23-1.38.1-3.23.73-4,.7-4.19,4.72-4.68a10.2,10.2,0,0,0,7.93-5.34c1.37-2.29,3-4.41,4.57-6.59a4.76,4.76,0,0,1,4.46-2.22c1.2.09,2.41-.05,3.61.09a1.25,1.25,0,0,1,.84.37c-2,0-3.85-.07-5.67,0a3.81,3.81,0,0,0-2.87,1.95c-1.95,2.82-3.95,5.62-5.87,8.47a7.18,7.18,0,0,1-5.35,3.35c-1,.12-2,.48-3.06.53A2.43,2.43,0,0,0,271.24,331.37Z" transform="translate(-86 -36.65)"/><path class="cls-14" d="M284.53,256c0-12.75,5.18-22.84,16-29.91a1.93,1.93,0,0,0,1-1.66c.32-3.66,2.69-5.78,6.4-5.81,3.17,0,6.35-.07,9.52,0,1.12,0,1.32-.34,1.31-1.37-.05-5.56,0-11.13,0-16.69,0-2,.93-3.2,2.48-3.2s2.44,1.18,2.44,3.22c0,5.56,0,11.13,0,16.69,0,1.08.28,1.44,1.36,1.33,1.77-.17,4.15.76,5.16-.36s.3-3.31.3-5.05c0-11.13,0-22.26,0-33.39,0-1.19-.23-1.65-1.51-1.54a28.84,28.84,0,0,1-4.26,0c-.9-.05-1.08.3-1.06,1.11,0,2.84,0,5.68,0,8.52,0,1.83-.88,2.85-2.39,2.88s-2.52-1-2.53-2.94c0-3.33,0-6.66,0-10,0-2.82,1.67-4.45,4.49-4.48,2.46,0,4.93,0,7.39,0,3.13,0,4.72,1.58,4.74,4.74,0,6.5,0,13,0,19.48s0,13.1,0,19.65c0,1,.2,1.4,1.32,1.37,3.12-.09,6.24-.05,9.35,0,3.92,0,6.23,2.12,6.52,6a1.62,1.62,0,0,0,.92,1.37A35.05,35.05,0,0,1,365,273a7.9,7.9,0,0,1-10.81,3.36,7.81,7.81,0,0,1-3-10.87,20,20,0,0,0,.36-19.4c-.47-.93-.84-1.75-2.09-.7a4.41,4.41,0,0,1-3,.74c-3.23,0-6.45.07-9.68,0-1.43,0-1.94.26-1.91,1.83q.13,10.07,0,20.13a7.82,7.82,0,0,1-10.48,7.43,8,8,0,0,1-5.25-7.89c0-6.66-.05-13.31,0-20,0-1.23-.29-1.57-1.53-1.53-3.28.09-6.56,0-9.84,0a5,5,0,0,1-3.27-.82c-1-.79-1.34-.36-1.78.48a19.65,19.65,0,0,0,0,19.24c1.28,2.41,1.75,4.81.69,7.36a7.39,7.39,0,0,1-6.62,4.84,7.56,7.56,0,0,1-7.6-4.1A33.67,33.67,0,0,1,284.53,256Z" transform="translate(-86 -36.65)"/><path class="cls-14" d="M273.51,324.45a7.74,7.74,0,0,0-3.73,1.14,5.72,5.72,0,0,0-2.73,4.1c-.32,1.76-.68,3.53-1,5.31a1.71,1.71,0,0,1-1.89,1.61c-1.21,0-2.41,0-3.61,0a2.53,2.53,0,0,0-2.51,1.22c-.51,1,0,1.78.67,2.49a.76.76,0,0,1,.25.74c-1.25-.72-2.07-1.71-1.6-3.2s1.75-1.82,3.17-1.71h.66c1.4-.1,3.21.59,4.1-.3s.62-2.56.86-3.89c.12-.64.22-1.29.33-1.94.58-3.39,2.43-5.61,5.86-5.83,3.93-.25,6.38-2,8.24-5.33a2.75,2.75,0,0,0,.05-3.28c-3-5.05-5.93-10.15-8.87-15.25-1.79-3.12-1.2-5.24,1.95-7.05,1.56-.9,3.11-1.81,4.69-2.69,2.61-1.44,4.88-.85,6.4,1.73,3.08,5.26,6.15,10.54,9.15,15.85.57,1,1.16,1.6,2.39,1.41a6.71,6.71,0,0,1,1.79,0,1.88,1.88,0,0,0,2.1-1.08A5.06,5.06,0,0,1,304.9,306c1.59,0,3.18-.06,4.76,0,.95.05,1.35-.26,1.51-1.21.38-2.37.86-4.72,1.31-7.07a8.81,8.81,0,0,1,8.82-7.47c3.83-.06,7.66,0,11.49,0a8.92,8.92,0,0,1,6.25,2.42c.76.71,1.54,1.4,2.28,2.13s1.61,1.55,3.07,1.2,2.87.64,3.77,1.85c1.46,1.93,3.08,2.27,5.33,1.41a62.34,62.34,0,0,1,7.39-2.1c4.4-1.1,8.1,1.19,9.57,6a2.2,2.2,0,0,1-1.22,2.61,2.34,2.34,0,0,1-2.87-.39,2.55,2.55,0,0,1-.41-.51c-2.23-3.39-2.23-3.4-6.2-2.31l-5,1.42c-.06.61.47.83.79,1.16,3.08,3.1,6.19,6.17,9.27,9.27,2.37,2.38,2.36,4.56,0,6.93-1.74,1.75-3.47,3.49-5.23,5.21-2.11,2.06-4.35,2.05-6.47,0-.9-.87-1.77-2.43-2.7-2.46-1.09,0-1.87,1.62-2.84,2.48-.12.11-.23.23-.35.35-5.2,5.2-5.2,5.2-12.5,5.75-3.45.26-5.35-1.75-4.9-5.19.2-1.56.51-3.13.57-4.7a7,7,0,0,1,2.62-5.06c1.69-1.55,3.23-3.26,4.9-4.83.66-.62.6-1,0-1.55a30.43,30.43,0,0,1-2.21-2.19,4.12,4.12,0,0,1,0-6,36.59,36.59,0,0,1,2.8-2.77c.74-.66.62-1.07-.08-1.64a31.68,31.68,0,0,1-2.41-2.22,4.5,4.5,0,0,0-3.4-1.32c-3.61,0-7.22,0-10.83,0-2.54,0-3.83,1.08-4.35,3.54-.47,2.18-.83,4.39-1.28,6.57-.14.67-.14,1.18.62,1.41a.75.75,0,0,1,.29.16,33.12,33.12,0,0,1,7,12,4.29,4.29,0,0,1-.72,3.44c-1.45,2.49-2.89,5-4.35,7.49a5.49,5.49,0,0,1-5.12,2.93c-2.84,0-5.68,0-8.53,0a5.58,5.58,0,0,1-5.33-3.1c-1.23-2.19-2.43-4.39-3.79-6.49a6.2,6.2,0,0,1,0-7.47c.18-.26.31-.54.56-1a.77.77,0,0,1-.08,1c-2.23,3.24-1,6.06.87,8.91,1.16,1.72,2,3.61,3.18,5.34a4.89,4.89,0,0,0,4.26,2.33c3,0,5.91,0,8.86,0a5.07,5.07,0,0,0,4.55-2.46c1.67-2.62,3.23-5.32,4.68-8.07a5,5,0,0,0-.14-4.87c-1.36-2.49-2.79-5-4.23-7.4a6.72,6.72,0,0,0-1.76-1.92,2.81,2.81,0,0,1-1.14-3c.38-1.93.7-3.87,1.12-5.79.59-2.64,2-3.77,4.75-3.79,3.6,0,7.22.06,10.83,0,3.11-.07,4.73,2.15,6.55,4.07.54.57.16,1.24-.3,1.76-.79.91-1.69,1.71-2.52,2.58a3.8,3.8,0,0,0-.05,5.67l.22.23c2.92,2.89,3,2.75,0,5.71a4.54,4.54,0,0,1-.58.58c-4.53,3.1-5.42,7.77-5.58,12.78a3.49,3.49,0,0,0,3.65,3.92,41,41,0,0,0,7.31-.88,5.68,5.68,0,0,0,2.89-1.78c1.62-1.62,3.23-3.26,4.88-4.85,1.26-1.21,1.63-1.2,2.88-.05.72.66,1.36,1.43,2.13,2a3.37,3.37,0,0,0,4.77-.05,83.23,83.23,0,0,0,6.37-6.37c1.5-1.68,1.27-3.57-.59-5.55s-3.93-3.95-5.89-5.93c-1.19-1.19-2.46-2.34-3.57-3.61-.89-1-.78-1.41.52-1.83,2-.66,4.1-1.17,6.16-1.7a3.29,3.29,0,0,1,3.91,1.63,14.17,14.17,0,0,0,.86,1.4,1.84,1.84,0,0,0,2.43.74,1.89,1.89,0,0,0,.94-2.5,7.27,7.27,0,0,0-8.94-5.21,73.39,73.39,0,0,0-7.58,2.12c-2,.69-3.56.49-5-1.2a5,5,0,0,0-4.89-2.05,2.07,2.07,0,0,1-1.76-.72c-.68-.63-1.32-1.32-2-2a9.9,9.9,0,0,0-7.66-3c-3.54.2-7.11,0-10.66.05a8.23,8.23,0,0,0-8.37,6.66c-.54,2.23-.82,4.51-1.31,6.75-.43,2-.75,2.26-2.73,2.3-1.37,0-2.74,0-4.1,0a4.9,4.9,0,0,0-4.18,2.16c-1.66,2.31-5.71,2-7.15-.42-2.87-4.89-5.7-9.81-8.53-14.74-2-3.41-3.88-3.94-7.29-2-1.37.79-2.78,1.53-4.11,2.4-2.46,1.61-2.95,3.43-1.51,6,2.78,4.95,5.59,9.89,8.56,14.72,1.12,1.83,1.36,3.38-.14,5l0,.06h0l0,.07C279,322.63,276.86,324.38,273.51,324.45Z" transform="translate(-86 -36.65)"/><path class="cls-14" d="M370.7,206.85c-.16-3-.29-6.1-.37-9.15a5.8,5.8,0,0,1,6.08-6.23c3.28,0,6.55.2,9.82.35a2.52,2.52,0,0,1,2.7,2.65c-.1,1.39-1.19,2.25-2.88,2.25h-6.26c-.09.45.45.68.75,1a71,71,0,0,1,7.61,83.47c-.17.28-.33.57-.52.83a2.49,2.49,0,0,1-3.41.86,2.35,2.35,0,0,1-.76-3.42,59.69,59.69,0,0,0,5.65-11.55c8.71-25.3,3.9-48-13.51-68.59,0,2.75,0,5,0,7.29.05,2.07-.68,3.24-2.22,3.39S370.81,209,370.7,206.85Z" transform="translate(-86 -36.65)"/><path class="cls-14" d="M396.65,337.84c.54,1.53-.38,2.45-1.49,3.25-.12-.45.23-.69.44-1,1.19-1.74.51-3.23-1.61-3.42-1.41-.13-2.84,0-4.26-.05-1.88-.05-2.21-.35-2.23-2.21,0-3.22,0-6.44,0-9.66,0-4.54-2.83-7.48-7.33-7.4a4.62,4.62,0,0,1-4.86-3c-.88-2-1.94-2.55-3.17-2s-1.24,1.55-.4,3.72c1.4,3.58,4,5.27,7.83,5.31,3,0,3.9,1,3.91,4s0,6.11,0,9.17c0,1.78-.34,2.07-2.12,2.14-.55,0-1.1,0-1.64,0h-106c-1.9,0-2.86,0-3.26-.45h1.84q54.46,0,108.93,0c1.61,0,2-.4,1.91-2-.13-3.1,0-6.22,0-9.33,0-2.32-.86-3.16-3.14-3.18-5-.05-8-2.29-9.34-7.05a2.3,2.3,0,0,1,1.33-3c1.24-.52,2.65-.27,3.07,1,1.07,3.4,3.28,4.25,6.68,4.26s6.17,3.33,6.27,6.84.08,7.32,0,11c0,1,.2,1.47,1.33,1.38,1.36-.1,2.74,0,4.1,0S396.11,336.35,396.65,337.84Z" transform="translate(-86 -36.65)"/><path d="M395.16,341.09H259c-1.25-.72-2.07-1.71-1.6-3.2s1.75-1.82,3.17-1.71h.66c1.4-.1,3.21.59,4.1-.3s.62-2.56.86-3.89c.12-.64.22-1.29.33-1.94.58-3.39,2.43-5.61,5.86-5.83,3.93-.25,6.38-2,8.24-5.33a2.75,2.75,0,0,0,.05-3.28c-3-5.05-5.93-10.15-8.87-15.25-1.79-3.12-1.2-5.24,1.95-7.05,1.56-.9,3.11-1.81,4.69-2.69,2.61-1.44,4.88-.85,6.4,1.73,3.08,5.26,6.15,10.54,9.15,15.85.57,1,1.16,1.6,2.39,1.41a6.71,6.71,0,0,1,1.79,0,1.88,1.88,0,0,0,2.1-1.08A5.06,5.06,0,0,1,304.9,306c1.59,0,3.18-.06,4.76,0,.95.05,1.35-.26,1.51-1.21.38-2.37.86-4.72,1.31-7.07a8.81,8.81,0,0,1,8.82-7.47c3.83-.06,7.66,0,11.49,0a8.92,8.92,0,0,1,6.25,2.42c.76.71,1.54,1.4,2.28,2.13s1.61,1.55,3.07,1.2,2.87.64,3.77,1.85c1.46,1.93,3.08,2.27,5.33,1.41a62.34,62.34,0,0,1,7.39-2.1c4.4-1.1,8.1,1.19,9.57,6a2.2,2.2,0,0,1-1.22,2.61,2.34,2.34,0,0,1-2.87-.39,2.55,2.55,0,0,1-.41-.51c-2.23-3.39-2.23-3.4-6.2-2.31l-5,1.42c-.06.61.47.83.79,1.16,3.08,3.1,6.19,6.17,9.27,9.27,2.37,2.38,2.36,4.56,0,6.93-1.74,1.75-3.47,3.49-5.23,5.21-2.11,2.06-4.35,2.05-6.47,0-.9-.87-1.77-2.43-2.7-2.46-1.09,0-1.87,1.62-2.84,2.48-.12.11-.23.23-.35.35-5.2,5.2-5.2,5.2-12.5,5.75-3.45.26-5.35-1.75-4.9-5.19.2-1.56.51-3.13.57-4.7a7,7,0,0,1,2.62-5.06c1.69-1.55,3.23-3.26,4.9-4.83.66-.62.6-1,0-1.55a30.43,30.43,0,0,1-2.21-2.19,4.12,4.12,0,0,1,0-6,36.59,36.59,0,0,1,2.8-2.77c.74-.66.62-1.07-.08-1.64a31.68,31.68,0,0,1-2.41-2.22,4.5,4.5,0,0,0-3.4-1.32c-3.61,0-7.22,0-10.83,0-2.54,0-3.83,1.08-4.35,3.54-.47,2.18-.83,4.39-1.28,6.57-.14.67-.14,1.18.62,1.41a.75.75,0,0,1,.29.16,33.12,33.12,0,0,1,7,12,4.29,4.29,0,0,1-.72,3.44c-1.45,2.49-2.89,5-4.35,7.49a5.49,5.49,0,0,1-5.12,2.93c-2.84,0-5.68,0-8.53,0a5.58,5.58,0,0,1-5.33-3.1c-1.23-2.19-2.43-4.39-3.79-6.49a6.2,6.2,0,0,1,0-7.47c.18-.26.31-.54.56-1h0c-2,0-3.85-.07-5.67,0a3.81,3.81,0,0,0-2.87,1.95c-1.95,2.82-3.95,5.62-5.87,8.47a7.18,7.18,0,0,1-5.35,3.35c-1,.12-2,.48-3.06.53a2.43,2.43,0,0,0-2.63,2.49c-.16,1.56-.5,3.1-.78,4.79v0h1.86q54.46,0,108.93,0c1.61,0,2-.4,1.91-2-.13-3.1,0-6.22,0-9.33,0-2.32-.86-3.16-3.14-3.18-5-.05-8-2.29-9.34-7.05a2.3,2.3,0,0,1,1.33-3c1.24-.52,2.65-.27,3.07,1,1.07,3.4,3.28,4.25,6.68,4.26s6.17,3.33,6.27,6.84.08,7.32,0,11c0,1,.2,1.47,1.33,1.38,1.36-.1,2.74,0,4.1,0s2.67.18,3.21,1.67S396.27,340.29,395.16,341.09Z" transform="translate(-86 -36.65)"/><path d="M365,273a7.9,7.9,0,0,1-10.81,3.36,7.81,7.81,0,0,1-3-10.87,20,20,0,0,0,.36-19.4c-.47-.93-.84-1.75-2.09-.7a4.41,4.41,0,0,1-3,.74c-3.23,0-6.45.07-9.68,0-1.43,0-1.94.26-1.91,1.83q.13,10.07,0,20.13a7.82,7.82,0,0,1-10.48,7.43,8,8,0,0,1-5.25-7.89c0-6.66-.05-13.31,0-20,0-1.23-.29-1.57-1.53-1.53-3.28.09-6.56,0-9.84,0a5,5,0,0,1-3.27-.82c-1-.79-1.34-.36-1.78.48a19.65,19.65,0,0,0,0,19.24c1.28,2.41,1.75,4.81.69,7.36a7.39,7.39,0,0,1-6.62,4.84,7.56,7.56,0,0,1-7.6-4.1A33.67,33.67,0,0,1,284.53,256c0-12.75,5.18-22.84,16-29.91a1.93,1.93,0,0,0,1-1.66c.32-3.66,2.69-5.78,6.4-5.81,3.17,0,6.35-.07,9.52,0,1.12,0,1.32-.34,1.31-1.37-.05-5.56,0-11.13,0-16.69,0-2,.93-3.2,2.48-3.2s2.44,1.18,2.44,3.22c0,5.56,0,11.13,0,16.69,0,1.08.28,1.44,1.36,1.33,1.77-.17,4.15.76,5.16-.36s.3-3.31.3-5.05c0-11.13,0-22.26,0-33.39,0-1.19-.23-1.65-1.51-1.54a28.84,28.84,0,0,1-4.26,0c-.9-.05-1.08.3-1.06,1.11,0,2.84,0,5.68,0,8.52,0,1.83-.88,2.85-2.39,2.88s-2.52-1-2.53-2.94c0-3.33,0-6.66,0-10,0-2.82,1.67-4.45,4.49-4.48,2.46,0,4.93,0,7.39,0,3.13,0,4.72,1.58,4.74,4.74,0,6.5,0,13,0,19.48s0,13.1,0,19.65c0,1,.2,1.4,1.32,1.37,3.12-.09,6.24-.05,9.35,0,3.92,0,6.23,2.12,6.52,6a1.62,1.62,0,0,0,.92,1.37A35.05,35.05,0,0,1,365,273Z" transform="translate(-86 -36.65)"/><path d="M285.06,193.32a66.15,66.15,0,0,0-18.2,79.52c.19.42.24,1,.86,1.22.53-2.18,1-4.32,1.58-6.46.48-1.87,1.67-2.74,3.11-2.34s2.11,1.66,1.66,3.53c-.72,3.08-1.46,6.15-2.27,9.2a5.74,5.74,0,0,1-7.6,4.2q-4.68-1.45-9.31-3a2.46,2.46,0,1,1,1.5-4.66c2.17.67,4.33,1.4,6.85,2.22a68.84,68.84,0,0,1-6.61-20.41c-3.58-24.33,3.37-45.22,20.69-62.67,1.46-1.47,3.07-2.79,4.65-4.13s3-1.33,4-.1S286.67,192,285.06,193.32Z" transform="translate(-86 -36.65)"/><path d="M388.15,281.2c-.17.28-.33.57-.52.83a2.49,2.49,0,0,1-3.41.86,2.35,2.35,0,0,1-.76-3.42,59.69,59.69,0,0,0,5.65-11.55c8.71-25.3,3.9-48-13.51-68.59,0,2.75,0,5,0,7.29.05,2.07-.68,3.24-2.22,3.39s-2.58-1-2.69-3.16c-.16-3-.29-6.1-.37-9.15a5.8,5.8,0,0,1,6.08-6.23c3.28,0,6.55.2,9.82.35a2.52,2.52,0,0,1,2.7,2.65c-.1,1.39-1.19,2.25-2.88,2.25h-6.26c-.09.45.45.68.75,1A71,71,0,0,1,388.15,281.2Z" transform="translate(-86 -36.65)"/><path class="cls-14" d="M309.58,311.09c3.87-1.43,5.45.9,7.29,3.83,2,3.17,1.92,5.49,0,8.72s-3.7,4.2-7.32,4.24c-3.83,0-5.85-1.11-7.71-4.44-1.71-3.08-1.85-5.23,0-8.29S305.5,309.65,309.58,311.09Z" transform="translate(-86 -36.65)"/><path class="cls-14" d="M361.09,318c-.21.22-.46.5-.73.76-1.33,1.3-2.57,3.5-4,3.64s-2.65-2.24-4-3.52c-4-3.95-7.95-7.95-12-11.89-.69-.68-.85-1.07,0-1.78,1.23-1.08,2.36-2.27,3.48-3.46.49-.52.78-.53,1.28,0q7.69,7.72,15.41,15.41C360.78,317.3,361.14,317.45,361.09,318Z" transform="translate(-86 -36.65)"/><path class="cls-14" d="M289.27,309.84a10.76,10.76,0,0,0-4.56,3c-2.82-4.88-5.58-9.68-8.38-14.45-.36-.62-.15-.85.34-1.12,1.1-.61,2.2-1.2,3.25-1.87.66-.43.94-.16,1.26.4C283.85,300.47,286.55,305.12,289.27,309.84Z" transform="translate(-86 -36.65)"/><path class="cls-14" d="M334.82,327.57c.07-3.12.36-5.91,3.07-7.94a38.24,38.24,0,0,0,4.16-4.26c1.43,1.46,2.63,2.8,4,4,.82.73.63,1.16-.08,1.77s-1.47,1.45-2.2,2.18C340.15,326.89,340.15,326.89,334.82,327.57Z" transform="translate(-86 -36.65)"/><path class="cls-14" d="M327.09,223.56h18.35c2.07,0,2.19.11,2.19,2.09,0,4.58,0,9.16,0,13.73,0,1.42-.45,1.94-1.89,1.9q-4.75-.12-9.51,0c-1.21,0-1.47-.41-1.39-1.49s0-2.4,0-3.6a7.88,7.88,0,1,0-15.75,0c0,1.3-.06,2.62,0,3.92,0,.88-.17,1.23-1.15,1.21-3.27-.06-6.55-.07-9.83,0-1.4,0-1.79-.58-1.78-1.86q0-7,0-14.06c0-1.35.54-1.82,1.87-1.82C314.53,223.58,320.81,223.56,327.09,223.56Z" transform="translate(-86 -36.65)"/><path class="cls-14" d="M352.56,231.33a29.26,29.26,0,0,1,11.31,17.3,30,30,0,0,1-3,21.65c-1.13,2.07-2.74,2.7-4.39,1.76s-1.83-2.54-.82-4.55c4.87-9.68,4.15-18.88-2.44-27.56a2.19,2.19,0,0,1-.65-1.43C352.58,236.23,352.56,234,352.56,231.33Z" transform="translate(-86 -36.65)"/><path class="cls-14" d="M301.47,231.46c0,2.57,0,4.86,0,7.14a2,2,0,0,1-.57,1.29c-6.65,8.72-7.35,18-2.42,27.7.68,1.33.91,2.57-.08,3.79a3,3,0,0,1-4.93-.63,29.61,29.61,0,0,1-3.87-18.7,29.2,29.2,0,0,1,10.91-20C300.71,231.92,300.94,231.8,301.47,231.46Z" transform="translate(-86 -36.65)"/><path class="cls-14" d="M330,252.06c0,5.18,0,10.37,0,15.55,0,2.16-1.08,3.39-2.88,3.43s-3-1.27-3-3.49q0-15.47,0-30.94c0-2.7,2.14-4.28,4.26-3.22a3.09,3.09,0,0,1,1.66,3.12C330,241.69,330,246.88,330,252.06Z" transform="translate(-86 -36.65)"/></g></svg>