<?xml version="1.0" standalone="no"?>
<!DOCTYPE svg PUBLIC "-//W3C//DTD SVG 20010904//EN"
 "http://www.w3.org/TR/2001/REC-SVG-20010904/DTD/svg10.dtd">
<svg version="1.0" xmlns="http://www.w3.org/2000/svg"
 width="501.000000pt" height="504.000000pt" viewBox="0 0 501.000000 504.000000"
 preserveAspectRatio="xMidYMid meet">

<g transform="translate(0.000000,504.000000) scale(0.100000,-0.100000)"
fill="#000000" stroke="none">
<path d="M1183 2857 c-57 -34 -99 -65 -94 -70 4 -4 53 -34 107 -65 l99 -57 5
-128 5 -127 108 62 107 62 0 127 0 127 -114 66 c-62 36 -115 66 -117 65 -2 0
-50 -28 -106 -62z"/>
<path d="M965 2731 c-101 -54 -143 -83 -149 -106 -8 -29 -7 -228 2 -241 4 -6
43 -31 87 -54 44 -23 87 -48 96 -56 35 -31 39 -18 39 114 l0 128 105 60 c58
32 105 62 105 65 0 6 -132 85 -195 117 -17 8 -34 3 -90 -27z"/>
<path d="M3911 2607 c-42 -15 -56 -36 -47 -70 4 -18 15 -29 34 -33 15 -4 30
-12 34 -18 5 -7 14 -7 30 1 13 7 33 15 45 18 45 13 38 86 -9 100 -46 13 -54
13 -87 2z m19 -52 c0 -25 -23 -35 -35 -15 -10 16 2 40 20 40 9 0 15 -9 15 -25z
m74 9 c8 -21 -1 -34 -25 -34 -12 0 -19 7 -19 18 0 34 33 45 44 16z"/>
<path d="M1838 2597 c-26 -20 -33 -63 -14 -92 34 -52 136 -22 136 40 0 53 -77
86 -122 52z m85 -38 c17 -28 1 -49 -37 -49 -26 0 -36 5 -41 20 -14 44 53 68
78 29z"/>
<path d="M2012 2594 c-26 -18 -30 -74 -6 -98 18 -18 76 -21 105 -6 14 8 19 21
19 50 0 44 -26 70 -70 70 -14 0 -36 -7 -48 -16z m83 -49 c0 -28 -3 -30 -35
-30 -26 0 -36 5 -38 18 -7 34 6 48 40 45 29 -3 33 -6 33 -33z"/>
<path d="M2182 2589 c-27 -24 -29 -70 -4 -92 11 -10 35 -17 60 -17 33 0 45 5
58 25 22 34 11 83 -22 90 -13 3 -35 7 -47 10 -15 3 -32 -3 -45 -16z m86 -22
c6 -7 9 -23 5 -36 -5 -18 -11 -22 -42 -19 -25 2 -37 8 -39 21 -8 39 51 65 76
34z"/>
<path d="M2539 2608 c-1 -1 -2 -31 -3 -66 -1 -74 16 -83 58 -27 15 19 31 35
37 35 5 0 9 -16 9 -35 0 -24 5 -35 15 -35 12 0 15 13 15 59 0 84 -24 92 -70
24 l-25 -37 -5 39 c-3 21 -11 40 -17 43 -7 2 -13 2 -14 0z"/>
<path d="M2707 2604 c-4 -4 -7 -34 -7 -66 l0 -58 55 0 c43 0 56 4 65 19 13 25
13 27 -6 45 -8 9 -31 16 -50 16 -19 0 -34 5 -34 10 0 6 21 10 46 10 32 0 44 4
42 13 -5 13 -99 23 -111 11z m88 -84 c4 -6 -8 -10 -30 -10 -22 0 -34 4 -30 10
3 6 17 10 30 10 13 0 27 -4 30 -10z"/>
<path d="M2860 2603 c-1 -4 -2 -32 -4 -61 -4 -71 15 -80 58 -29 17 20 34 37
39 37 4 0 7 -16 7 -35 0 -24 5 -35 15 -35 12 0 15 13 15 59 0 35 -5 63 -12 67
-6 4 -25 -8 -45 -29 -18 -21 -35 -37 -38 -37 -2 0 -5 14 -7 32 -2 17 -9 33
-15 36 -7 2 -13 0 -13 -5z"/>
<path d="M3025 2602 c-3 -3 -5 -32 -5 -64 0 -43 4 -58 14 -58 8 0 16 7 20 15
3 9 19 15 41 15 28 0 37 5 44 22 9 24 4 55 -10 63 -12 8 -97 13 -104 7z m85
-42 c0 -16 -7 -20 -30 -20 -23 0 -30 4 -30 20 0 16 7 20 30 20 23 0 30 -4 30
-20z"/>
<path d="M3177 2603 c-4 -3 -7 -33 -7 -65 l0 -59 56 3 c41 2 60 8 68 21 18 28
-4 52 -53 55 -36 3 -41 6 -41 28 0 23 -10 31 -23 17z m93 -83 c0 -5 -16 -10
-36 -10 -21 0 -33 4 -29 10 3 6 19 10 36 10 16 0 29 -4 29 -10z"/>
<path d="M3400 2550 c-33 -65 -33 -83 0 -62 11 7 29 12 40 12 11 0 29 -5 40
-12 10 -7 22 -9 25 -6 9 9 -47 121 -62 126 -7 2 -26 -24 -43 -58z m58 -8 c2
-7 -5 -12 -17 -12 -14 0 -19 5 -14 15 6 17 25 15 31 -3z"/>
<path d="M3567 2603 c-4 -3 -7 -25 -7 -49 0 -28 -5 -44 -15 -48 -21 -8 -19
-26 4 -26 25 0 39 19 43 60 2 27 8 36 26 38 20 3 22 0 22 -47 0 -37 4 -51 14
-51 15 0 24 52 18 103 -3 25 -6 27 -51 27 -26 0 -51 -3 -54 -7z"/>
<path d="M3710 2545 l0 -66 58 3 c51 3 57 5 60 26 5 33 -15 52 -54 52 -26 0
-33 4 -36 22 -2 12 -9 23 -15 26 -10 3 -13 -14 -13 -63z m95 -25 c4 -6 -8 -10
-29 -10 -20 0 -36 5 -36 10 0 6 13 10 29 10 17 0 33 -4 36 -10z"/>
<path d="M4080 2550 c-33 -65 -33 -83 0 -62 11 7 29 12 40 12 11 0 29 -5 40
-12 10 -7 23 -9 27 -5 9 10 -47 119 -64 125 -7 2 -26 -24 -43 -58z m58 -8 c2
-7 -3 -12 -12 -12 -9 0 -16 7 -16 16 0 17 22 14 28 -4z"/>
<path d="M2402 2588 c-20 -20 -15 -86 7 -98 31 -16 101 -13 101 5 0 11 -12 15
-46 15 -45 0 -45 0 -42 33 3 30 6 32 46 35 23 2 42 7 42 13 0 13 -94 11 -108
-3z"/>
<path d="M1070 2367 c0 -144 -10 -128 126 -205 66 -38 97 -50 111 -45 10 5 63
33 116 63 l97 55 0 128 0 128 -47 -27 c-27 -15 -75 -43 -107 -62 -33 -20 -64
-35 -70 -35 -10 0 -92 44 -193 105 l-33 20 0 -125z"/>
<path d="M1875 2302 c-38 -3 -59 -18 -49 -34 3 -4 536 -8 1185 -8 1171 0 1179
0 1179 20 0 20 -9 20 -1137 22 -626 2 -1156 2 -1178 0z"/>
</g>
</svg>
